<svg width="48" height="48" viewBox="0 0 48 48" fill="none" xmlns="http://www.w3.org/2000/svg">
  <rect width="48" height="48" rx="8" fill="#1C1F2A"/>
  <path d="M24 8C15.164 8 8 15.164 8 24C8 32.836 15.164 40 24 40C32.836 40 40 32.836 40 24C40 15.164 32.836 8 24 8ZM24 12C27.866 12 31.4 13.648 33.84 16.32C33.6 16.56 33.28 16.8 32.96 17.12C32.16 17.92 31.2 18.48 30.08 18.72C29.68 18.8 29.28 18.88 28.88 18.88C27.6 18.88 26.32 18.4 25.36 17.44C24.64 16.72 24.24 15.76 24.08 14.8C24 14.08 24 13.36 24.16 12.64C24.16 12.4 24.08 12.16 24 12ZM18.72 14.8C19.12 14.8 19.52 14.88 19.92 15.04C20.56 15.28 21.12 15.68 21.52 16.16C22 16.72 22.4 17.36 22.56 18.08C22.72 18.8 22.72 19.6 22.56 20.32C22.32 21.36 21.76 22.32 21.04 23.12C20.88 23.28 20.72 23.44 20.48 23.6C19.92 24 19.28 24.24 18.64 24.24C18.24 24.24 17.84 24.16 17.44 24C16.8 23.76 16.24 23.36 15.84 22.88C15.36 22.32 14.96 21.68 14.8 20.96C14.64 20.24 14.64 19.44 14.8 18.72C15.04 17.68 15.6 16.72 16.32 15.92C16.48 15.76 16.64 15.6 16.88 15.44C17.44 15.04 18.08 14.8 18.72 14.8ZM15.28 32.4C14.08 30.56 13.36 28.32 13.28 26.08C13.28 25.6 13.28 25.12 13.36 24.64C13.36 24.48 13.44 24.32 13.44 24.16C13.52 23.76 13.6 23.36 13.76 22.96C14.56 23.68 15.52 24.24 16.64 24.48C16.96 24.56 17.28 24.64 17.6 24.64C17.92 24.64 18.32 24.64 18.64 24.56C19.28 24.48 19.92 24.24 20.48 23.92C21.36 24.72 22.4 25.28 23.52 25.52C23.84 25.6 24.16 25.68 24.48 25.68C24.8 25.68 25.2 25.68 25.52 25.6C26.24 25.52 26.96 25.28 27.6 24.88C28.32 25.52 29.2 26 30.16 26.24C30.48 26.32 30.8 26.4 31.12 26.4C31.52 26.4 31.92 26.4 32.32 26.32C32.8 26.24 33.28 26.08 33.76 25.84C33.92 26.56 34 27.28 34 28C34 30.24 33.36 32.32 32.24 34.08C31.36 33.68 30.4 33.44 29.44 33.44C28.48 33.44 27.52 33.68 26.64 34.16C25.84 34.64 25.12 35.28 24.56 36.08C24 35.28 23.28 34.64 22.48 34.16C21.6 33.68 20.64 33.44 19.68 33.44C18.72 33.44 17.76 33.68 16.88 34.08C16.32 33.6 15.76 33.04 15.28 32.4ZM24 36.8C22.08 36.8 20.24 36.32 18.64 35.44C19.28 35.12 19.92 35.04 20.56 35.04C21.2 35.04 21.84 35.2 22.48 35.52C23.04 35.84 23.6 36.24 24 36.8C24.4 36.24 24.96 35.84 25.52 35.52C26.16 35.2 26.8 35.04 27.44 35.04C28.08 35.04 28.72 35.12 29.36 35.44C27.76 36.32 25.92 36.8 24 36.8ZM34.72 27.76C34.64 27.76 34.56 27.76 34.48 27.68C34.16 27.68 33.84 27.6 33.52 27.52C32.56 27.28 31.68 26.8 30.96 26.08C30.24 25.36 29.76 24.48 29.52 23.52C29.28 22.56 29.36 21.52 29.68 20.56C30 19.6 30.56 18.72 31.28 18C32 17.28 32.88 16.8 33.84 16.56C33.92 16.56 34 16.48 34.08 16.48C35.28 18.32 36 20.56 36.08 22.8C36.08 23.28 36.08 23.76 36 24.24C36 24.4 35.92 24.56 35.92 24.72C35.84 25.84 35.6 26.88 35.2 27.84C35.04 27.76 34.88 27.76 34.72 27.76Z" fill="#3AA0FF"/>
</svg>
